<?xml version="1.0" encoding="UTF-8"?>
<svg width="12px" height="13px" viewBox="0 0 12 13" version="1.1" xmlns="http://www.w3.org/2000/svg" xmlns:xlink="http://www.w3.org/1999/xlink">
    <!-- Generator: Sketch 61 (89581) - https://sketch.com -->
    <title>Search Symbol</title>
    <desc>Created with Sketch.</desc>
    <g id="Symbols" stroke="none" stroke-width="1" fill="none" fill-rule="evenodd">
        <g id="Search-Symbol" fill="#000000">
            <g id="Search">
                <path d="M11.8760464,12.1846854 L9.0311026,9.27215118 C11.0244997,7.20760202 11.0852415,3.8935028 9.16891541,1.75303017 C7.25258929,-0.387442472 4.03868295,-0.595323276 1.8771148,1.28138438 C-0.28445334,3.15809205 -0.627238025,6.45394826 1.09939532,8.75911517 C2.82602867,11.0642821 6.00985325,11.5613974 8.32294558,9.8869843 L11.2233104,12.8724111 C11.405282,13.0469469 11.6888526,13.0417969 11.8647293,12.8607621 C12.040606,12.6797273 12.0456093,12.3878401 11.8760464,12.2005316 L11.8760464,12.1846854 Z M1.0042968,5.4690597 C1.0042968,3.01860536 2.93418276,1.03211963 5.31481775,1.03211963 C7.69545273,1.03211963 9.6253387,3.01860536 9.6253387,5.4690597 C9.6253387,7.91951403 7.69545273,9.90599976 5.31481775,9.90599976 C2.93418276,9.90599976 1.0042968,7.91951403 1.0042968,5.4690597 Z" id="Shape"></path>
            </g>
        </g>
    </g>
</svg>