<?xml version="1.0" encoding="UTF-8"?>
<svg width="90px" height="100px" viewBox="0 0 90 100" version="1.1" xmlns="http://www.w3.org/2000/svg" xmlns:xlink="http://www.w3.org/1999/xlink">
    <!-- Generator: Sketch 52.3 (67297) - http://www.bohemiancoding.com/sketch -->
    <title>JB Bag Icon v2</title>
    <desc>Created with Sketch.</desc>
    <g id="Design" stroke="none" stroke-width="1" fill="none" fill-rule="evenodd">
        <g id="Icons" transform="translate(-1101.000000, -170.000000)" fill="#000000" fill-rule="nonzero">
            <g id="JB-Bag-Icon-v2" transform="translate(1101.000000, 170.000000)">
                <path d="M70,26 C82.3582518,26 88.6915851,26 89,26 C89.4626223,26 89.4626223,79.1120798 89,85 C88.5373777,90.8879202 86.0507812,93.4492187 83.5,96 C81.7994792,97.7005208 78.6328125,99.0338542 74,100 L16.5,100 C11.6680819,99.1088964 8.33474853,97.7755631 6.5,96 C3.74787721,93.3366554 1.50840108,91.4705592 1,85 C0.491598918,78.5294408 0.5,26 1,26 C1.33333333,26 7.66666667,26 20,26 L70,26 Z M11,85 C11.0640207,87.3260854 11.4694824,88.4694824 12.5,89.5 C13.1870117,90.1870117 14.6870117,90.6870117 17,91 L73,91 C75.2845595,90.7154405 76.7845595,90.2154405 77.5,89.5 C78.5731608,88.4268392 78.9589865,86.490156 79,85 C79.0273423,84.0065626 79.0273423,67.339896 79,35 L70,35 C70,38 70,39.8333333 70,40.5 C70,41.5 69.5,44 65,44 C60.5,44 60,41.5 60,40.5 C60,39.8333333 60,38 60,35 L30,35 C30,38 30,39.8333333 30,40.5 C30,41.5 30,44 25,44 C20,44 20,41.5 20,40.5 C20,39.8333333 20,38 20,35 L11,35 C10.9573195,66.7826098 10.9573195,83.4492764 11,85 Z" id="Combined-Shape"></path>
                <path d="M20,26 L30,26 C30,15.3333333 35,10 45,10 C55,10 60,15.3333333 60,26 L70,26 C70,9 61.6666667,0.5 45,0.5 C28.3333333,0.5 20,9 20,26 Z" id="Path-7" stroke="#000000" stroke-width="0.5"></path>
            </g>
        </g>
    </g>
</svg>