<?xml version="1.0" encoding="UTF-8"?>
<svg width="97px" height="97px" viewBox="0 0 97 97" version="1.1" xmlns="http://www.w3.org/2000/svg" xmlns:xlink="http://www.w3.org/1999/xlink">
    <!-- Generator: Sketch 52.1 (67048) - http://www.bohemiancoding.com/sketch -->
    <title>JB account</title>
    <desc>Created with Sketch.</desc>
    <g id="Design" stroke="none" stroke-width="1" fill="none" fill-rule="evenodd">
        <g id="Icons" transform="translate(-304.000000, -173.000000)" fill="#000000" fill-rule="nonzero">
            <g id="JB-account" transform="translate(304.000000, 173.000000)">
                <path d="M48.5,97 C21.7141896,97 0,75.2858104 0,48.5 C0,21.7141896 21.7141896,0 48.5,0 C75.2858104,0 97,21.7141896 97,48.5 C97,75.2858104 75.2858104,97 48.5,97 Z M49,88 C70.5391052,88 88,70.5391052 88,49 C88,27.4608948 70.5391052,10 49,10 C27.4608948,10 10,27.4608948 10,49 C10,70.5391052 27.4608948,88 49,88 Z" id="Combined-Shape"></path>
                <path d="M49,57 C38.5065898,57 30,48.4934102 30,38 C30,27.5065898 38.5065898,19 49,19 C59.4934102,19 68,27.5065898 68,38 C68,48.4934102 59.4934102,57 49,57 Z M49,48 C54.5228475,48 59,43.5228475 59,38 C59,32.4771525 54.5228475,28 49,28 C43.4771525,28 39,32.4771525 39,38 C39,43.5228475 43.4771525,48 49,48 Z" id="Combined-Shape"></path>
                <path d="M23.5,79.5 C23.8908833,79.3850343 25.0049173,76.2151152 29.5,73.5 C31.2470404,72.4447545 35,71.5 37,71.5 C39,71.5 45.6550672,73.5077128 48.9795265,73.5 C56.5734681,73.482382 58.340064,71.4351882 61,71.5 C63.659936,71.5648118 66.3829793,71.8945214 69.5,74 C72.5603911,76.0672266 73.556751,79.8696326 74,80 C74.8947,80.2631471 76.8328137,77.7505567 78,76.5 C79.1671863,75.2494433 81.5206358,72.919401 81,72.5 C80.7659395,72.3114513 78.2848547,68.6174888 72,65.5 C68.9649847,63.9945354 65,62 60,62 C55,62 52.8128599,64 48.9795265,64 C45.1461932,64 42.5,62 38,62 C33.5,62 29.1289063,63.6855469 25.5,65.5 C21.8710938,67.3144531 17.3222168,71.8555664 17,72.5 C16.6777832,73.1444336 18.311303,74.6732565 20,76.5 C21.688697,78.3267435 22.6857965,79.7394716 23.5,79.5 Z" id="Path-3"></path>
            </g>
        </g>
    </g>
</svg>