<?xml version="1.0" encoding="UTF-8"?>
<svg width="25px" height="29px" viewBox="0 0 25 29" version="1.1" xmlns="http://www.w3.org/2000/svg" xmlns:xlink="http://www.w3.org/1999/xlink">
    <!-- Generator: Sketch 52.1 (67048) - http://www.bohemiancoding.com/sketch -->
    <title>JB Bag Icon</title>
    <desc>Created with Sketch.</desc>
    <g id="Design" stroke="none" stroke-width="1" fill="none" fill-rule="evenodd">
        <g id="Icons" transform="translate(-930.000000, -170.000000)" fill="#000000" fill-rule="nonzero">
            <g id="JB-Bag-Icon" transform="translate(930.000000, 171.000000)">
                <path d="M19.4444444,7.22222222 C22.8772922,7.22222222 24.6365514,7.22222222 24.7222222,7.22222222 C24.8507284,7.22222222 24.8507284,21.9755777 24.7222222,23.6111111 C24.593716,25.2466445 23.9029948,25.9581163 23.1944444,26.6666667 C22.7220775,27.1390336 21.8424479,27.5094039 20.5555556,27.7777778 L4.58333333,27.7777778 C3.24113385,27.530249 2.31520792,27.1598786 1.80555556,26.6666667 C1.041077,25.9268487 0.419000301,25.4084887 0.277777778,23.6111111 C0.136555255,21.8137335 0.138888889,7.22222222 0.277777778,7.22222222 C0.37037037,7.22222222 2.12962963,7.22222222 5.55555556,7.22222222 L19.4444444,7.22222222 Z M3.05555556,23.6111111 C3.07333908,24.2572459 3.18596734,24.5748562 3.47222222,24.8611111 C3.66305881,25.0519477 4.07972548,25.1908366 4.72222222,25.2777778 L20.2777778,25.2777778 C20.9123776,25.1987335 21.3290443,25.0598446 21.5277778,24.8611111 C21.825878,24.5630109 21.9330518,24.0250433 21.9444444,23.6111111 C21.9520395,23.3351563 21.9520395,18.7055267 21.9444444,9.72222222 L19.4444444,9.72222222 C19.4444444,11.2037037 19.4444444,12.037037 19.4444444,12.2222222 C19.4444444,12.5 19.3055556,13.1944444 18.0555556,13.1944444 C16.8055556,13.1944444 16.6666667,12.5 16.6666667,12.2222222 C16.6666667,12.037037 16.6666667,11.2037037 16.6666667,9.72222222 L8.33333333,9.72222222 C8.33333333,11.2037037 8.33333333,12.037037 8.33333333,12.2222222 C8.33333333,12.5 8.33333333,13.1944444 6.94444444,13.1944444 C5.55555556,13.1944444 5.55555556,12.5 5.55555556,12.2222222 C5.55555556,12.037037 5.55555556,11.2037037 5.55555556,9.72222222 L3.05555556,9.72222222 C3.04369987,18.5507249 3.04369987,23.1803546 3.05555556,23.6111111 Z" id="Combined-Shape"></path>
                <path d="M5.55555556,7.22222222 L8.33333333,7.22222222 C8.33333333,4.25925926 9.72222222,2.77777778 12.5,2.77777778 C15.2777778,2.77777778 16.6666667,4.25925926 16.6666667,7.22222222 L19.4444444,7.22222222 C19.4444444,2.5 17.1296296,0.138888889 12.5,0.138888889 C7.87037037,0.138888889 5.55555556,2.5 5.55555556,7.22222222 Z" id="Path-7" stroke="#000000" stroke-width="0.5"></path>
            </g>
        </g>
    </g>
</svg>