<?xml version="1.0" encoding="UTF-8"?>
<svg width="26px" height="26px" viewBox="0 0 26 26" version="1.1" xmlns="http://www.w3.org/2000/svg" xmlns:xlink="http://www.w3.org/1999/xlink">
    <!-- Generator: Sketch 52.1 (67048) - http://www.bohemiancoding.com/sketch -->
    <title>JB Search</title>
    <desc>Created with Sketch.</desc>
    <g id="Design" stroke="none" stroke-width="1" fill="none" fill-rule="evenodd">
        <g id="Icons" transform="translate(-614.000000, -171.000000)" fill="#000000" fill-rule="nonzero">
            <g id="JB-Search" transform="translate(614.000000, 171.000000)">
                <polygon id="Path-4" stroke="#000000" points="16.875 18 18 17 18.75 17 25 23.25 25 23.625 23.5 25 23 25 16.875 18.875"></polygon>
                <path d="M10.25,20.5 C4.58908131,20.5 0,15.9109187 0,10.25 C0,4.58908131 4.58908131,0 10.25,0 C15.9109187,0 20.5,4.58908131 20.5,10.25 C20.5,15.9109187 15.9109187,20.5 10.25,20.5 Z M10.125,18.25 C14.4742424,18.25 18,14.7242424 18,10.375 C18,6.0257576 14.4742424,2.5 10.125,2.5 C5.7757576,2.5 2.25,6.0257576 2.25,10.375 C2.25,14.7242424 5.7757576,18.25 10.125,18.25 Z" id="Combined-Shape"></path>
            </g>
        </g>
    </g>
</svg>